<svg width="512" height="512" viewBox="0 0 512 512" fill="none" xmlns="http://www.w3.org/2000/svg">
  <rect width="512" height="512" rx="132" fill="url(#bg)" />
  <path d="M132 168C132 129.34 163.34 98 202 98H310C348.66 98 380 129.34 380 168V256C380 294.66 348.66 326 310 326H238L180 378V326H202C163.34 326 132 294.66 132 256V168Z" fill="white"/>
  <circle cx="208" cy="210" r="16" fill="#0E4ED8"/>
  <circle cx="256" cy="210" r="16" fill="#0E4ED8"/>
  <circle cx="304" cy="210" r="16" fill="#0E4ED8"/>
  <path d="M172 148C172 131.431 185.431 118 202 118H310C326.569 118 340 131.431 340 148V158H172V148Z" fill="#D9E5FF"/>
  <defs>
    <linearGradient id="bg" x1="68" y1="56" x2="430" y2="456" gradientUnits="userSpaceOnUse">
      <stop stop-color="#0E4ED8" />
      <stop offset="1" stop-color="#38B6FF" />
    </linearGradient>
  </defs>
</svg>
